<svg width="282" height="87" viewBox="0 0 282 87" fill="none" xmlns="http://www.w3.org/2000/svg">
<rect width="86.5715" height="86.5715" rx="20" fill="#CE1446"/>
<path d="M127.615 68L109.835 19H118.9L133.075 58.025L147.285 19H156.315L138.535 68H127.615ZM172.811 68.91C169.591 68.91 166.651 68.0817 163.991 66.425C161.354 64.7683 159.243 62.54 157.656 59.74C156.093 56.94 155.311 53.8483 155.311 50.465C155.311 47.9217 155.766 45.5417 156.676 43.325C157.586 41.085 158.834 39.125 160.421 37.445C162.031 35.7417 163.898 34.4117 166.021 33.455C168.144 32.4983 170.408 32.02 172.811 32.02C175.541 32.02 178.038 32.6033 180.301 33.77C182.588 34.9133 184.524 36.4883 186.111 38.495C187.698 40.5017 188.853 42.7883 189.576 45.355C190.299 47.9217 190.463 50.605 190.066 53.405H164.481C164.808 54.7117 165.344 55.89 166.091 56.94C166.838 57.9667 167.783 58.795 168.926 59.425C170.069 60.0317 171.364 60.3467 172.811 60.37C174.304 60.3933 175.658 60.0433 176.871 59.32C178.108 58.5733 179.134 57.57 179.951 56.31L188.666 58.34C187.243 61.4433 185.119 63.9867 182.296 65.97C179.473 67.93 176.311 68.91 172.811 68.91ZM164.201 47H181.421C181.164 45.6 180.616 44.34 179.776 43.22C178.959 42.0767 177.944 41.1667 176.731 40.49C175.518 39.8133 174.211 39.475 172.811 39.475C171.411 39.475 170.116 39.8133 168.926 40.49C167.736 41.1433 166.721 42.0417 165.881 43.185C165.064 44.305 164.504 45.5767 164.201 47ZM191.489 68L204.299 50.43L191.594 32.965H202.129L209.549 43.15L217.004 32.965H227.539L214.834 50.43L227.644 68H217.109L209.549 57.64L202.024 68H191.489ZM246.434 68.91C243.214 68.91 240.274 68.0817 237.614 66.425C234.977 64.7683 232.866 62.54 231.279 59.74C229.716 56.94 228.934 53.8483 228.934 50.465C228.934 47.9217 229.389 45.5417 230.299 43.325C231.209 41.085 232.457 39.125 234.044 37.445C235.654 35.7417 237.521 34.4117 239.644 33.455C241.767 32.4983 244.031 32.02 246.434 32.02C249.164 32.02 251.661 32.6033 253.924 33.77C256.211 34.9133 258.147 36.4883 259.734 38.495C261.321 40.5017 262.476 42.7883 263.199 45.355C263.922 47.9217 264.086 50.605 263.689 53.405H238.104C238.431 54.7117 238.967 55.89 239.714 56.94C240.461 57.9667 241.406 58.795 242.549 59.425C243.692 60.0317 244.987 60.3467 246.434 60.37C247.927 60.3933 249.281 60.0433 250.494 59.32C251.731 58.5733 252.757 57.57 253.574 56.31L262.289 58.34C260.866 61.4433 258.742 63.9867 255.919 65.97C253.096 67.93 249.934 68.91 246.434 68.91ZM237.824 47H255.044C254.787 45.6 254.239 44.34 253.399 43.22C252.582 42.0767 251.567 41.1667 250.354 40.49C249.141 39.8133 247.834 39.475 246.434 39.475C245.034 39.475 243.739 39.8133 242.549 40.49C241.359 41.1433 240.344 42.0417 239.504 43.185C238.687 44.305 238.127 45.5767 237.824 47ZM268.905 68V15.5H277.445V68H268.905Z" fill="white"/>
<g filter="url(#filter0_i_982_43)">
<path d="M30.9296 24.2716C28.9615 24.7163 27.8834 22.0522 29.6217 21.0558C35.3589 17.7 41.5974 17.6547 41.1086 27.0427C41.1086 33.9889 33.4534 48.2685 37.1097 53.959C37.2367 54.1583 37.4029 54.3305 37.5986 54.4654C41.6518 57.3477 45.1785 52.242 47.2092 48.9891C47.2333 48.9491 47.2598 48.9106 47.2886 48.8738C50.3055 44.8963 54.2041 29.9332 59.8243 37.6124C59.9249 37.753 60.0051 37.9069 60.0625 38.0694C65.7787 54.8978 44.1296 79.3477 28.3389 62.1117L28.2261 61.9799C20.4498 52.0278 28.598 39.667 33.1526 30.2749C36.1068 24.7904 34.1304 23.5263 30.9296 24.2716Z" fill="white"/>
</g>
<defs>
<filter id="filter0_i_982_43" x="25" y="19" width="38" height="52" filterUnits="userSpaceOnUse" color-interpolation-filters="sRGB">
<feFlood flood-opacity="0" result="BackgroundImageFix"/>
<feBlend mode="normal" in="SourceGraphic" in2="BackgroundImageFix" result="shape"/>
<feColorMatrix in="SourceAlpha" type="matrix" values="0 0 0 0 0 0 0 0 0 0 0 0 0 0 0 0 0 0 127 0" result="hardAlpha"/>
<feOffset dx="2" dy="4"/>
<feGaussianBlur stdDeviation="1.5"/>
<feComposite in2="hardAlpha" operator="arithmetic" k2="-1" k3="1"/>
<feColorMatrix type="matrix" values="0 0 0 0 0.425 0 0 0 0 0.0478125 0 0 0 0 0.149207 0 0 0 0.2 0"/>
<feBlend mode="normal" in2="shape" result="effect1_innerShadow_982_43"/>
</filter>
</defs>
</svg>
