<svg width="90" height="90" viewBox="0 0 90 90" fill="none" xmlns="http://www.w3.org/2000/svg">
<circle opacity="0.07" cx="45" cy="45" r="45" fill="#CE1446"/>
<path d="M47.4646 65.003C47.0988 65.003 46.8023 64.7051 46.8023 64.3377V62.5687C46.8023 62.3154 46.5971 62.1092 46.3449 62.1092H44.567C44.3148 62.1092 44.1096 62.3154 44.1096 62.5687V64.3377C44.1096 64.7051 43.8131 65.003 43.4474 65.003C43.0817 65.003 42.7852 64.7051 42.7852 64.3377V62.5687C42.7852 61.5817 43.5845 60.7787 44.567 60.7787H46.3449C47.3274 60.7787 48.1268 61.5817 48.1268 62.5687V64.3377C48.1268 64.7051 47.8304 65.003 47.4646 65.003Z" fill="#CE1446"/>
<path d="M51.8229 40.6843C51.6053 40.389 51.1906 40.327 50.8965 40.5455C50.6026 40.7642 50.5408 41.1808 50.7583 41.4761L54.0469 45.9379C54.4127 46.4342 54.3862 47.1817 53.9866 47.6398L50.4436 51.7016H40.4676L36.9246 47.6398C36.5251 47.1817 36.4986 46.4342 36.8644 45.9379L43.3933 37.0795V42.1271C42.5657 42.7661 42.0819 43.7434 42.0819 44.8102C42.0819 46.6789 43.5953 48.1993 45.4556 48.1993C47.3159 48.1993 48.8294 46.6789 48.8294 44.8102C48.8294 43.7914 48.3781 42.8401 47.6062 42.1992V37.1994L49.0604 39.1724C49.2781 39.4678 49.6928 39.5298 49.9868 39.3112C50.2807 39.0925 50.3425 38.6759 50.125 38.3806L47.2844 34.5265C46.8372 33.9198 46.1707 33.5718 45.4557 33.5718C44.7408 33.5718 44.0742 33.9198 43.627 34.5265L35.7999 45.1462C35.0659 46.1422 35.1212 47.5912 35.9286 48.5168L38.8834 51.9041C38.1455 52.2497 37.6327 53.0014 37.6327 53.8717V57.0455C37.6327 58.0172 38.2717 58.8417 39.1497 59.1174L39.3304 64.3609C39.3428 64.7204 39.6366 65.0032 39.9919 65.0032C39.9996 65.0032 40.0074 65.0032 40.0152 65.0029C40.3807 64.9901 40.6667 64.6822 40.6541 64.315L40.4784 59.2157H50.5213L50.3456 64.315C50.333 64.6822 50.6191 64.9901 50.9846 65.0029C50.9923 65.0032 51.0001 65.0032 51.0079 65.0032C51.363 65.0032 51.657 64.7204 51.6693 64.3609L51.851 59.0869C52.6827 58.7849 53.2787 57.9839 53.2787 57.0455V53.8717C53.2787 53.0014 52.7659 52.2497 52.0281 51.9041L54.9828 48.5168C55.7902 47.5913 55.8455 46.1422 55.1115 45.1462L51.8229 40.6843ZM45.4556 34.9022C45.7507 34.9022 46.0221 35.0499 46.2198 35.3181L46.2817 35.4022V42.5335C46.2817 42.7573 46.3938 42.9662 46.5799 43.0892C47.1591 43.4721 47.5049 44.1154 47.5049 44.81C47.5049 45.9451 46.5856 46.8686 45.4556 46.8686C44.3257 46.8686 43.4064 45.9451 43.4064 44.81C43.4064 44.0825 43.7771 43.4233 44.398 43.0464C44.5965 42.9259 44.7178 42.7099 44.7178 42.477V35.2859C44.9129 35.0389 45.1731 34.9022 45.4556 34.9022V34.9022ZM51.9543 57.0454C51.9543 57.5082 51.5793 57.8849 51.1186 57.8849H39.7927C39.3319 57.8849 38.9571 57.5082 38.9571 57.0454V53.8715C38.9571 53.4086 39.332 53.032 39.7927 53.032H51.1186C51.5794 53.032 51.9543 53.4086 51.9543 53.8715V57.0454Z" fill="#CE1446"/>
<path d="M32.2772 40.8885C32.3642 38.7807 32.9477 36.7171 33.9806 34.8884C34.161 34.5688 34.0495 34.1628 33.7314 33.9815C33.4132 33.8001 33.0091 33.9122 32.8286 34.2318C31.6839 36.2584 31.0403 38.5465 30.9516 40.882C29.8088 41.1739 28.9609 42.2161 28.9609 43.4538C28.9609 44.9168 30.1458 46.1071 31.6022 46.1071C33.0586 46.1071 34.2435 44.9168 34.2435 43.4538C34.2435 42.225 33.4077 41.1889 32.2772 40.8885V40.8885ZM31.6022 44.7766C30.8761 44.7766 30.2854 44.1832 30.2854 43.4538C30.2854 42.7244 30.8761 42.1309 31.6022 42.1309C32.3283 42.1309 32.919 42.7244 32.919 43.4538C32.919 44.1832 32.3283 44.7766 31.6022 44.7766Z" fill="#CE1446"/>
<path d="M66.5978 25H64.4696C63.6965 25 63.0674 25.6319 63.0674 26.4086V26.8123H47.9663V26.4086C47.9663 25.6319 47.3372 25 46.5641 25H44.4359C43.6628 25 43.0337 25.6319 43.0337 26.4086V26.8123H27.9326V26.4086C27.9326 25.6319 27.3035 25 26.5304 25H24.4022C23.629 25 23 25.6319 23 26.4086V28.5465C23 29.3232 23.629 29.9551 24.4022 29.9551H26.5304C27.3035 29.9551 27.9326 29.3232 27.9326 28.5465V28.1428H39.4288C37.5903 28.9912 35.9306 30.2235 34.5677 31.7788C34.326 32.0546 34.3526 32.475 34.6272 32.7178C34.753 32.829 34.9091 32.8837 35.0646 32.8837C35.2482 32.8837 35.431 32.8074 35.5619 32.6581C37.5202 30.4234 40.1509 28.9211 43.0337 28.3746V28.5466C43.0337 29.3233 43.6628 29.9552 44.4359 29.9552H46.5641C47.3372 29.9552 47.9663 29.3233 47.9663 28.5466V28.3745C53.9783 29.5125 58.4701 34.7207 58.7238 40.8884C57.593 41.1885 56.7567 42.2247 56.7567 43.4538C56.7567 44.9169 57.9416 46.1072 59.398 46.1072C60.8544 46.1072 62.0393 44.9169 62.0393 43.4538C62.0393 42.2163 61.1915 41.1742 60.0488 40.8821C59.8371 35.286 56.4537 30.4007 51.5715 28.143H63.0674V28.5467C63.0674 29.3234 63.6965 29.9553 64.4696 29.9553H66.5978C67.371 29.9553 68 29.3234 68 28.5467V26.4086C68 25.6319 67.371 25 66.5978 25V25ZM26.6081 28.5465C26.6081 28.5895 26.5732 28.6246 26.5304 28.6246H24.4022C24.3594 28.6246 24.3245 28.5895 24.3245 28.5465V26.4086C24.3245 26.3656 24.3594 26.3305 24.4022 26.3305H26.5304C26.5732 26.3305 26.6081 26.3656 26.6081 26.4086V28.5465ZM60.7148 43.4536C60.7148 44.183 60.1241 44.7765 59.398 44.7765C58.6719 44.7765 58.0812 44.183 58.0812 43.4536C58.0812 42.7242 58.6719 42.1308 59.398 42.1308C60.1241 42.1308 60.7148 42.7242 60.7148 43.4536ZM46.6418 28.5465C46.6418 28.5895 46.6069 28.6246 46.5641 28.6246H44.4359C44.3931 28.6246 44.3582 28.5895 44.3582 28.5465V26.4086C44.3582 26.3656 44.3931 26.3305 44.4359 26.3305H46.5641C46.6069 26.3305 46.6418 26.3656 46.6418 26.4086V28.5465ZM66.6755 28.5465C66.6755 28.5895 66.6406 28.6246 66.5978 28.6246H64.4696C64.4268 28.6246 64.3919 28.5895 64.3919 28.5465V26.4086C64.3919 26.3656 64.4268 26.3305 64.4696 26.3305H66.5978C66.6406 26.3305 66.6755 26.3656 66.6755 26.4086V28.5465Z" fill="#CE1446"/>
</svg>
