<svg width="90" height="90" viewBox="0 0 90 90" fill="none" xmlns="http://www.w3.org/2000/svg">
<circle opacity="0.07" cx="45" cy="45" r="45" fill="#CE1446"/>
<path d="M64.5408 37.5161H63.6452V26.629C63.6452 24.628 62.0172 23 60.0161 23H57.1129C55.1119 23 53.4839 24.628 53.4839 26.629V28.8065H43.3226V25.1774C43.3226 23.9769 42.3456 23 41.1452 23H29.5323C28.3318 23 27.3548 23.9769 27.3548 25.1774V33.8871C27.3548 35.0876 28.3318 36.0645 29.5323 36.0645H34.6129V37.5161H26.4592C24.5518 37.5161 23 39.0679 23 40.9753C23 41.119 23.0094 41.2627 23.0269 41.4043L25.61 62.0673C25.8256 63.7947 27.3011 65.0968 29.0416 65.0968H32.9414L36.8331 67.6915C37.1373 67.8933 37.49 68 37.8536 68C38.8676 68 39.6935 67.174 39.6935 66.1594V65.0968H61.9584C63.6989 65.0968 65.1752 63.7947 65.3907 62.0673L67.9739 41.405C67.9906 41.262 68 41.119 68 40.9753C68 39.0679 66.4482 37.5161 64.5408 37.5161V37.5161ZM54.9355 26.629C54.9355 25.4285 55.9124 24.4516 57.1129 24.4516H60.0161C61.2166 24.4516 62.1935 25.4285 62.1935 26.629V30.2581H54.9355V26.629ZM54.9355 31.7097H62.1935V33.1613H54.9355V31.7097ZM59.2903 44.7742V34.6129H62.1935V44.7742H59.2903ZM61.745 46.2258L58.9659 51.784C58.8127 52.0911 58.3163 52.0903 58.1639 51.784L55.384 46.2258H61.745ZM54.9355 34.6129H57.8387V44.7742H54.9355V34.6129ZM43.3226 33.8871V30.2581H53.4839V37.5161H36.0645V36.0645H41.1452C42.3456 36.0645 43.3226 35.0876 43.3226 33.8871ZM29.5323 34.6129C29.1316 34.6129 28.8065 34.287 28.8065 33.8871V25.1774C28.8065 24.7775 29.1316 24.4516 29.5323 24.4516H41.1452C41.5458 24.4516 41.871 24.7775 41.871 25.1774V33.8871C41.871 34.287 41.5458 34.6129 41.1452 34.6129H29.5323ZM66.5331 41.2235L63.95 61.8865C63.8244 62.8889 62.968 63.6452 61.9584 63.6452H38.2419V66.1594C38.2419 66.4504 37.8783 66.6427 37.6373 66.4831L33.3812 63.6452H29.0416C28.0313 63.6452 27.1756 62.8889 27.05 61.8873L24.4669 41.2235C24.4567 41.1408 24.4516 41.0581 24.4516 40.9753C24.4516 39.8685 25.3516 38.9677 26.4592 38.9677H53.4839V45.6713L56.6644 52.0323H52.7581V53.4839H58.5645C59.2889 53.4839 59.9399 53.0811 60.2644 52.4336L63.6452 45.6713V38.9677H64.5408C65.6484 38.9677 66.5484 39.8685 66.5484 40.9753C66.5484 41.0581 66.5433 41.1408 66.5331 41.2235V41.2235Z" fill="#CE1446"/>
<path d="M47.6776 47.0249V42.5967C47.6776 41.3962 46.7006 40.4193 45.5001 40.4193C44.4325 40.4193 43.5463 41.193 43.3619 42.2077C40.7185 44.3278 37.4183 45.5 34.0244 45.5H30.984C28.983 45.5 27.355 47.1279 27.355 49.129V52.0322C27.355 54.0333 28.983 55.6612 30.984 55.6612H31.8535L33.3059 62.1935H37.5163V56.088C39.6407 56.6004 41.641 57.5723 43.3619 58.9528C43.5463 59.9682 44.4325 60.7419 45.5001 60.7419C46.7006 60.7419 47.6776 59.765 47.6776 58.5645V54.1363C49.3317 53.7988 50.5808 52.3334 50.5808 50.5806C50.5808 48.8278 49.3317 47.3624 47.6776 47.0249ZM33.1614 54.2096H30.984C30.039 54.2096 29.2406 53.6007 28.9401 52.758H31.7098V51.3064H28.8066V49.8548H31.7098V48.4032H28.9401C29.2406 47.5605 30.039 46.9516 30.984 46.9516H33.1614V54.2096ZM36.0647 60.7419H34.4693L33.3407 55.6612H34.0251C34.711 55.6612 35.3911 55.7222 36.0654 55.8158V60.7419H36.0647ZM43.3227 57.1071C40.7606 55.3426 37.7318 54.3483 34.613 54.2358V46.9254C37.7318 46.8122 40.7606 45.8186 43.3227 44.0541V57.1071ZM46.2259 58.5645C46.2259 58.9644 45.9008 59.2903 45.5001 59.2903C45.0995 59.2903 44.7743 58.9644 44.7743 58.5645V42.5967C44.7743 42.1968 45.0995 41.8709 45.5001 41.8709C45.9008 41.8709 46.2259 42.1968 46.2259 42.5967V58.5645ZM47.6776 52.6245V48.5375C48.5202 48.8379 49.1292 49.6363 49.1292 50.5813C49.1292 51.5263 48.5202 52.324 47.6776 52.6245Z" fill="#CE1446"/>
<path d="M37.9173 27.8325L34.4596 26.1036C34.1975 25.9729 33.9029 25.9033 33.6096 25.9033C32.5623 25.9033 31.7095 26.7554 31.7095 27.8034V31.2612C31.7095 32.3092 32.5623 33.1613 33.6096 33.1613C33.9029 33.1613 34.1975 33.0916 34.4596 32.961L37.9173 31.2321C38.5647 30.9084 38.9675 30.2566 38.9675 29.5323C38.9675 28.8079 38.5647 28.1562 37.9173 27.8325V27.8325ZM37.2677 29.9337L33.81 31.6625C33.5298 31.8048 33.1611 31.5783 33.1604 31.2612V27.8034C33.1611 27.5559 33.3621 27.3549 33.6096 27.3549C33.6793 27.3549 33.7483 27.3708 33.81 27.402L37.2677 29.1309C37.4208 29.2079 37.5159 29.361 37.5159 29.5323C37.5159 29.7036 37.4208 29.8567 37.2677 29.9337Z" fill="#CE1446"/>
<path d="M52.7581 54.9355H62.9193V56.3871H52.7581V54.9355Z" fill="#CE1446"/>
<path d="M52.7581 57.8387H62.9193V59.2903H52.7581V57.8387Z" fill="#CE1446"/>
<path d="M58.5645 60.742H60.0161V62.1936H58.5645V60.742Z" fill="#CE1446"/>
<path d="M61.4678 60.742H62.9194V62.1936H61.4678V60.742Z" fill="#CE1446"/>
<path d="M52.7581 60.742H54.2097V62.1936H52.7581V60.742Z" fill="#CE1446"/>
<path d="M55.6614 60.742H57.113V62.1936H55.6614V60.742Z" fill="#CE1446"/>
</svg>
