<svg width="85" height="94" viewBox="0 0 85 94" fill="none" xmlns="http://www.w3.org/2000/svg">
<circle opacity="0.1" cx="24.5" cy="24.5" r="24.5" fill="#3B38EB"/>
<path d="M77.6329 81.874L77.6218 81.8726L77.6329 81.874ZM77.6329 81.874L77.6347 81.8742L77.6329 81.874Z" fill="#3B38EB" stroke="#CE1446" stroke-width="8"/>
<mask id="path-3-inside-1_1163_5" fill="white">
<path d="M47.968 54.7852V46.7144C47.968 44.5264 46.1878 42.7458 44.0002 42.7458C42.0547 42.7458 40.4399 44.156 40.1039 46.0054C35.2871 49.8694 29.2733 52.0059 23.0889 52.0059H17.5486C13.9023 52.0059 10.9357 54.973 10.9357 58.6202V63.9116C10.9357 67.5587 13.9023 70.5259 17.5486 70.5259H19.1331L21.7796 82.4316H29.4519V71.3037C33.3231 72.2377 36.9681 74.009 40.1039 76.5251C40.4399 78.3757 42.0547 79.7859 44.0002 79.7859C46.1878 79.7859 47.968 78.0053 47.968 75.8173V67.7466C50.9821 67.1314 53.2583 64.4606 53.2583 61.2659C53.2583 58.0712 50.9821 55.4003 47.968 54.7852ZM21.5164 67.8802H17.5486C15.8266 67.8802 14.3718 66.7703 13.8242 65.2345H18.8712V62.5887H13.5809V59.943H18.8712V57.2973H13.8242C14.3718 55.7615 15.8266 54.6516 17.5486 54.6516H21.5164V67.8802ZM26.8067 79.7859H23.8997L21.8431 70.5259H23.0902C24.3401 70.5259 25.5793 70.637 26.808 70.8077V79.7859H26.8067ZM40.0325 73.161C35.3638 69.9452 29.8447 68.1328 24.1615 67.9278V54.604C29.8447 54.3976 35.3638 52.5866 40.0325 49.3707V73.161ZM45.3228 75.8173C45.3228 76.5462 44.7303 77.1402 44.0002 77.1402C43.2702 77.1402 42.6777 76.5462 42.6777 75.8173V46.7144C42.6777 45.9855 43.2702 45.3916 44.0002 45.3916C44.7303 45.3916 45.3228 45.9855 45.3228 46.7144V75.8173ZM47.968 64.9911V57.542C49.5035 58.0897 50.6131 59.5448 50.6131 61.2672C50.6131 62.9896 49.5035 64.4434 47.968 64.9911Z"/>
</mask>
<path d="M47.968 54.7852V46.7144C47.968 44.5264 46.1878 42.7458 44.0002 42.7458C42.0547 42.7458 40.4399 44.156 40.1039 46.0054C35.2871 49.8694 29.2733 52.0059 23.0889 52.0059H17.5486C13.9023 52.0059 10.9357 54.973 10.9357 58.6202V63.9116C10.9357 67.5587 13.9023 70.5259 17.5486 70.5259H19.1331L21.7796 82.4316H29.4519V71.3037C33.3231 72.2377 36.9681 74.009 40.1039 76.5251C40.4399 78.3757 42.0547 79.7859 44.0002 79.7859C46.1878 79.7859 47.968 78.0053 47.968 75.8173V67.7466C50.9821 67.1314 53.2583 64.4606 53.2583 61.2659C53.2583 58.0712 50.9821 55.4003 47.968 54.7852ZM21.5164 67.8802H17.5486C15.8266 67.8802 14.3718 66.7703 13.8242 65.2345H18.8712V62.5887H13.5809V59.943H18.8712V57.2973H13.8242C14.3718 55.7615 15.8266 54.6516 17.5486 54.6516H21.5164V67.8802ZM26.8067 79.7859H23.8997L21.8431 70.5259H23.0902C24.3401 70.5259 25.5793 70.637 26.808 70.8077V79.7859H26.8067ZM40.0325 73.161C35.3638 69.9452 29.8447 68.1328 24.1615 67.9278V54.604C29.8447 54.3976 35.3638 52.5866 40.0325 49.3707V73.161ZM45.3228 75.8173C45.3228 76.5462 44.7303 77.1402 44.0002 77.1402C43.2702 77.1402 42.6777 76.5462 42.6777 75.8173V46.7144C42.6777 45.9855 43.2702 45.3916 44.0002 45.3916C44.7303 45.3916 45.3228 45.9855 45.3228 46.7144V75.8173ZM47.968 64.9911V57.542C49.5035 58.0897 50.6131 59.5448 50.6131 61.2672C50.6131 62.9896 49.5035 64.4434 47.968 64.9911Z" fill="#3B38EB"/>
<path d="M47.968 54.7852H39.968V61.3175L46.3683 62.6236L47.968 54.7852ZM40.1039 46.0054L45.1099 52.2456L47.441 50.3756L47.9751 47.4352L40.1039 46.0054ZM19.1331 70.5259L26.9425 68.79L25.5501 62.5259H19.1331V70.5259ZM21.7796 82.4316L13.9702 84.1676L15.3626 90.4316H21.7796V82.4316ZM29.4519 82.4316V90.4316H37.4519V82.4316H29.4519ZM29.4519 71.3037L31.3281 63.5269L21.4519 61.1442V71.3037H29.4519ZM40.1039 76.5251L47.9753 75.0963L47.4415 72.1557L45.1105 70.2853L40.1039 76.5251ZM47.968 67.7466L46.3683 59.9081L39.968 61.2143V67.7466H47.968ZM21.5164 67.8802V75.8802H29.5164V67.8802H21.5164ZM13.8242 65.2345V57.2345H2.47893L6.28881 67.9209L13.8242 65.2345ZM18.8712 65.2345V73.2345H26.8712V65.2345H18.8712ZM18.8712 62.5887H26.8712V54.5887H18.8712V62.5887ZM13.5809 62.5887H5.58089V70.5887H13.5809V62.5887ZM13.5809 59.943V51.943H5.58089V59.943H13.5809ZM18.8712 59.943V67.943H26.8712V59.943H18.8712ZM18.8712 57.2973H26.8712V49.2973H18.8712V57.2973ZM13.8242 57.2973L6.28881 54.6108L2.47893 65.2973H13.8242V57.2973ZM21.5164 54.6516H29.5164V46.6516H21.5164V54.6516ZM23.8997 79.7859L16.09 81.5204L17.4815 87.7859H23.8997V79.7859ZM21.8431 70.5259V62.5259H11.8714L14.0333 72.2604L21.8431 70.5259ZM26.808 70.8077H34.808V63.842L27.9086 62.8837L26.808 70.8077ZM26.808 79.7859V87.7859H34.808V79.7859H26.808ZM40.0325 73.161L35.4944 79.7493L48.0325 88.3857V73.161H40.0325ZM24.1615 67.9278H16.1615V75.6444L23.8731 75.9226L24.1615 67.9278ZM24.1615 54.604L23.8712 46.6092L16.1615 46.8892V54.604H24.1615ZM40.0325 49.3707H48.0325V34.146L35.4944 42.7824L40.0325 49.3707ZM47.968 64.9911H39.968V76.338L50.6555 72.5261L47.968 64.9911ZM47.968 57.542L50.6555 50.007L39.968 46.1951V57.542H47.968ZM55.968 54.7852V46.7144H39.968V54.7852H55.968ZM55.968 46.7144C55.968 40.1097 50.6077 34.7458 44.0002 34.7458V50.7458C41.7679 50.7458 39.968 48.9431 39.968 46.7144H55.968ZM44.0002 34.7458C38.0859 34.7458 33.2414 39.023 32.2327 44.5756L47.9751 47.4352C47.6384 49.289 46.0236 50.7458 44.0002 50.7458V34.7458ZM35.098 39.7651C31.6868 42.5016 27.435 44.0059 23.0889 44.0059V60.0059C31.1116 60.0059 38.8873 57.2373 45.1099 52.2456L35.098 39.7651ZM23.0889 44.0059H17.5486V60.0059H23.0889V44.0059ZM17.5486 44.0059C9.48241 44.0059 2.93573 50.5564 2.93573 58.6202H18.9357C18.9357 59.3897 18.3221 60.0059 17.5486 60.0059V44.0059ZM2.93573 58.6202V63.9116H18.9357V58.6202H2.93573ZM2.93573 63.9116C2.93573 71.9754 9.48241 78.5259 17.5486 78.5259V62.5259C18.3221 62.5259 18.9357 63.142 18.9357 63.9116H2.93573ZM17.5486 78.5259H19.1331V62.5259H17.5486V78.5259ZM11.3237 72.2618L13.9702 84.1676L29.589 80.6957L26.9425 68.79L11.3237 72.2618ZM21.7796 90.4316H29.4519V74.4316H21.7796V90.4316ZM37.4519 82.4316V71.3037H21.4519V82.4316H37.4519ZM27.5757 79.0806C30.3198 79.7427 32.8926 80.9958 35.0974 82.7648L45.1105 70.2853C41.0436 67.0222 36.3263 64.7327 31.3281 63.5269L27.5757 79.0806ZM32.2326 77.9539C33.2406 83.5072 38.0844 87.7859 44.0002 87.7859V71.7859C46.025 71.7859 47.6391 73.2443 47.9753 75.0963L32.2326 77.9539ZM44.0002 87.7859C50.6077 87.7859 55.968 82.422 55.968 75.8173H39.968C39.968 73.5887 41.7679 71.7859 44.0002 71.7859V87.7859ZM55.968 75.8173V67.7466H39.968V75.8173H55.968ZM49.5677 75.585C56.2237 74.2266 61.2583 68.3463 61.2583 61.2659H45.2583C45.2583 60.5748 45.7406 60.0362 46.3683 59.9081L49.5677 75.585ZM61.2583 61.2659C61.2583 54.1854 56.2237 48.3051 49.5677 46.9468L46.3683 62.6236C45.7406 62.4955 45.2583 61.9569 45.2583 61.2659H61.2583ZM21.5164 59.8802H17.5486V75.8802H21.5164V59.8802ZM17.5486 59.8802C19.3802 59.8802 20.8298 61.0618 21.3597 62.548L6.28881 67.9209C7.91374 72.4788 12.2731 75.8802 17.5486 75.8802V59.8802ZM13.8242 73.2345H18.8712V57.2345H13.8242V73.2345ZM26.8712 65.2345V62.5887H10.8712V65.2345H26.8712ZM18.8712 54.5887H13.5809V70.5887H18.8712V54.5887ZM21.5809 62.5887V59.943H5.58089V62.5887H21.5809ZM13.5809 67.943H18.8712V51.943H13.5809V67.943ZM26.8712 59.943V57.2973H10.8712V59.943H26.8712ZM18.8712 49.2973H13.8242V65.2973H18.8712V49.2973ZM21.3597 59.9838C20.8298 61.4699 19.3802 62.6516 17.5486 62.6516V46.6516C12.2731 46.6516 7.91374 50.053 6.28881 54.6108L21.3597 59.9838ZM17.5486 62.6516H21.5164V46.6516H17.5486V62.6516ZM13.5164 54.6516V67.8802H29.5164V54.6516H13.5164ZM26.8067 71.7859H23.8997V87.7859H26.8067V71.7859ZM31.7094 78.0514L29.6528 68.7914L14.0333 72.2604L16.09 81.5204L31.7094 78.0514ZM21.8431 78.5259H23.0902V62.5259H21.8431V78.5259ZM23.0902 78.5259C23.8719 78.5259 24.7288 78.5957 25.7075 78.7316L27.9086 62.8837C26.4299 62.6784 24.8083 62.5259 23.0902 62.5259V78.5259ZM18.808 70.8077V79.7859H34.808V70.8077H18.808ZM26.808 71.7859H26.8067V87.7859H26.808V71.7859ZM44.5706 66.5727C38.635 62.4842 31.6387 60.1924 24.45 59.933L23.8731 75.9226C28.0506 76.0733 32.0926 77.4061 35.4944 79.7493L44.5706 66.5727ZM32.1615 67.9278V54.604H16.1615V67.9278H32.1615ZM24.4518 62.5987C31.638 62.3377 38.634 60.0483 44.5706 55.959L35.4944 42.7824C32.0936 45.1249 28.0513 46.4574 23.8712 46.6092L24.4518 62.5987ZM32.0325 49.3707V73.161H48.0325V49.3707H32.0325ZM37.3228 75.8173C37.3228 72.1348 40.3052 69.1402 44.0002 69.1402V85.1402C49.1554 85.1402 53.3228 80.9577 53.3228 75.8173H37.3228ZM44.0002 69.1402C47.6953 69.1402 50.6777 72.1348 50.6777 75.8173H34.6777C34.6777 80.9577 38.8451 85.1402 44.0002 85.1402V69.1402ZM50.6777 75.8173V46.7144H34.6777V75.8173H50.6777ZM50.6777 46.7144C50.6777 50.397 47.6953 53.3916 44.0002 53.3916V37.3916C38.8451 37.3916 34.6777 41.5741 34.6777 46.7144H50.6777ZM44.0002 53.3916C40.3052 53.3916 37.3228 50.397 37.3228 46.7144H53.3228C53.3228 41.5741 49.1554 37.3916 44.0002 37.3916V53.3916ZM37.3228 46.7144V75.8173H53.3228V46.7144H37.3228ZM55.968 64.9911V57.542H39.968V64.9911H55.968ZM45.2805 65.0771C43.7929 64.5465 42.6131 63.0963 42.6131 61.2672H58.6131C58.6131 55.9934 55.2142 51.6329 50.6555 50.007L45.2805 65.0771ZM42.6131 61.2672C42.6131 59.435 43.7959 57.9855 45.2805 57.456L50.6555 72.5261C55.2111 70.9013 58.6131 66.5441 58.6131 61.2672H42.6131Z" fill="#CE1446" mask="url(#path-3-inside-1_1163_5)"/>
<mask id="path-5-inside-2_1163_5" fill="white">
<path d="M30.1828 19.8056L23.882 16.6545C23.4046 16.4164 22.8676 16.2894 22.3333 16.2894C20.4248 16.2894 18.8708 17.8425 18.8708 19.7527V26.0548C18.8708 27.965 20.4248 29.518 22.3333 29.518C22.8676 29.518 23.4046 29.391 23.882 29.1529L30.1828 26.0019C31.3626 25.4119 32.0966 24.2239 32.0966 22.9037C32.0966 21.5835 31.3626 20.3956 30.1828 19.8056V19.8056ZM28.9991 23.6353L22.6983 26.7863C22.1878 27.0456 21.5159 26.6329 21.5146 26.0548V19.7527C21.5159 19.3016 21.8823 18.9351 22.3333 18.9351C22.4603 18.9351 22.5859 18.9643 22.6983 19.0211L28.9991 22.1722C29.2782 22.3124 29.4514 22.5915 29.4514 22.9037C29.4514 23.2159 29.2782 23.495 28.9991 23.6353Z"/>
</mask>
<path d="M30.1828 19.8056L23.882 16.6545C23.4046 16.4164 22.8676 16.2894 22.3333 16.2894C20.4248 16.2894 18.8708 17.8425 18.8708 19.7527V26.0548C18.8708 27.965 20.4248 29.518 22.3333 29.518C22.8676 29.518 23.4046 29.391 23.882 29.1529L30.1828 26.0019C31.3626 25.4119 32.0966 24.2239 32.0966 22.9037C32.0966 21.5835 31.3626 20.3956 30.1828 19.8056V19.8056ZM28.9991 23.6353L22.6983 26.7863C22.1878 27.0456 21.5159 26.6329 21.5146 26.0548V19.7527C21.5159 19.3016 21.8823 18.9351 22.3333 18.9351C22.4603 18.9351 22.5859 18.9643 22.6983 19.0211L28.9991 22.1722C29.2782 22.3124 29.4514 22.5915 29.4514 22.9037C29.4514 23.2159 29.2782 23.495 28.9991 23.6353Z" fill="#3B38EB"/>
<path d="M23.882 16.6545L27.4604 9.49942L27.4524 9.49546L23.882 16.6545ZM23.882 29.1529L27.4524 36.312L27.4604 36.308L23.882 29.1529ZM28.9991 23.6353L32.5774 30.7904L32.5842 30.787L32.591 30.7836L28.9991 23.6353ZM22.6983 26.7863L19.12 19.6312L19.0978 19.6423L19.0757 19.6535L22.6983 26.7863ZM21.5146 26.0548H13.5146V26.0639L13.5146 26.0731L21.5146 26.0548ZM21.5146 19.7527L13.5147 19.7292L13.5146 19.7409V19.7527H21.5146ZM22.6983 19.0211L19.0865 26.1594L19.1032 26.1678L19.12 26.1763L22.6983 19.0211ZM28.9991 22.1722L32.591 15.0239L32.5842 15.0205L32.5774 15.0171L28.9991 22.1722ZM33.7611 12.6505L27.4604 9.49942L20.3037 23.8097L26.6045 26.9607L33.7611 12.6505ZM27.4524 9.49546C25.8699 8.70621 24.1111 8.28943 22.3333 8.28943V24.2894C21.6241 24.2894 20.9393 24.1266 20.3117 23.8136L27.4524 9.49546ZM22.3333 8.28943C16.0069 8.28943 10.8708 13.4238 10.8708 19.7527H26.8708C26.8708 22.2611 24.8427 24.2894 22.3333 24.2894V8.28943ZM10.8708 19.7527V26.0548H26.8708V19.7527H10.8708ZM10.8708 26.0548C10.8708 32.3837 16.0069 37.518 22.3333 37.518V21.518C24.8427 21.518 26.8708 23.5463 26.8708 26.0548H10.8708ZM22.3333 37.518C24.1111 37.518 25.8699 37.1012 27.4524 36.312L20.3117 21.9938C20.9393 21.6808 21.6241 21.518 22.3333 21.518V37.518ZM27.4604 36.308L33.7611 33.157L26.6045 18.8467L20.3037 21.9978L27.4604 36.308ZM33.7611 33.157C37.6525 31.2109 40.0966 27.252 40.0966 22.9037H24.0966C24.0966 21.1959 25.0727 19.6128 26.6045 18.8467L33.7611 33.157ZM40.0966 22.9037C40.0966 18.5554 37.6525 14.5966 33.7611 12.6505L26.6045 26.9607C25.0727 26.1946 24.0966 24.6116 24.0966 22.9037H40.0966ZM25.4208 16.4802L19.12 19.6312L26.2766 33.9414L32.5774 30.7904L25.4208 16.4802ZM19.0757 19.6535C21.7472 18.2967 24.4278 18.885 26.1146 19.9252C27.807 20.9688 29.5079 23.0838 29.5146 26.0365L13.5146 26.0731C13.5227 29.6038 15.5602 32.2143 17.7164 33.5439C19.8672 34.8702 23.139 35.5352 26.3209 33.9191L19.0757 19.6535ZM29.5146 26.0548V19.7527H13.5146V26.0548H29.5146ZM29.5146 19.7761C29.503 23.7189 26.3067 26.9351 22.3333 26.9351V10.9351C17.4579 10.9351 13.5289 14.8843 13.5147 19.7292L29.5146 19.7761ZM22.3333 26.9351C21.2477 26.9351 20.1309 26.6878 19.0865 26.1594L26.3102 11.8829C25.0409 11.2407 23.6728 10.9351 22.3333 10.9351V26.9351ZM19.12 26.1763L25.4208 29.3273L32.5774 15.0171L26.2766 11.866L19.12 26.1763ZM25.4073 29.3205C23.0026 28.1122 21.4514 25.6369 21.4514 22.9037H37.4514C37.4514 19.5461 35.5538 16.5126 32.591 15.0239L25.4073 29.3205ZM21.4514 22.9037C21.4514 20.1705 23.0026 17.6952 25.4073 16.4869L32.591 30.7836C35.5538 29.2948 37.4514 26.2613 37.4514 22.9037H21.4514Z" fill="#CE1446" mask="url(#path-5-inside-2_1163_5)"/>
<mask id="path-7-inside-3_1163_5" fill="white">
<path d="M57.2256 69.2034H75.7417V71.8485H57.2256V69.2034Z"/>
</mask>
<path d="M57.2256 69.2034H75.7417V71.8485H57.2256V69.2034Z" fill="#3B38EB"/>
<path d="M57.2256 69.2034V61.2034H49.2256V69.2034H57.2256ZM75.7417 69.2034H83.7417V61.2034H75.7417V69.2034ZM75.7417 71.8485V79.8485H83.7417V71.8485H75.7417ZM57.2256 71.8485H49.2256V79.8485H57.2256V71.8485ZM57.2256 77.2034H75.7417V61.2034H57.2256V77.2034ZM67.7417 69.2034V71.8485H83.7417V69.2034H67.7417ZM75.7417 63.8485H57.2256V79.8485H75.7417V63.8485ZM65.2256 71.8485V69.2034H49.2256V71.8485H65.2256Z" fill="#CE1446" mask="url(#path-7-inside-3_1163_5)"/>
<mask id="path-9-inside-4_1163_5" fill="white">
<path d="M57.2256 74.4945H75.7417V77.1397H57.2256V74.4945Z"/>
</mask>
<path d="M57.2256 74.4945H75.7417V77.1397H57.2256V74.4945Z" fill="#3B38EB"/>
<path d="M57.2256 74.4945V66.4945H49.2256V74.4945H57.2256ZM75.7417 74.4945H83.7417V66.4945H75.7417V74.4945ZM75.7417 77.1397V85.1397H83.7417V77.1397H75.7417ZM57.2256 77.1397H49.2256V85.1397H57.2256V77.1397ZM57.2256 82.4945H75.7417V66.4945H57.2256V82.4945ZM67.7417 74.4945V77.1397H83.7417V74.4945H67.7417ZM75.7417 69.1397H57.2256V85.1397H75.7417V69.1397ZM65.2256 77.1397V74.4945H49.2256V77.1397H65.2256Z" fill="#CE1446" mask="url(#path-9-inside-4_1163_5)"/>
<mask id="path-11-inside-5_1163_5" fill="white">
<path d="M67.8066 79.7864H70.4517V82.4315H67.8066V79.7864Z"/>
</mask>
<path d="M67.8066 79.7864H70.4517V82.4315H67.8066V79.7864Z" fill="#3B38EB"/>
<path d="M67.8066 79.7864V71.7864H59.8066V79.7864H67.8066ZM70.4517 79.7864H78.4517V71.7864H70.4517V79.7864ZM70.4517 82.4315V90.4315H78.4517V82.4315H70.4517ZM67.8066 82.4315H59.8066V90.4315H67.8066V82.4315ZM67.8066 87.7864H70.4517V71.7864H67.8066V87.7864ZM62.4517 79.7864V82.4315H78.4517V79.7864H62.4517ZM70.4517 74.4315H67.8066V90.4315H70.4517V74.4315ZM75.8066 82.4315V79.7864H59.8066V82.4315H75.8066Z" fill="#CE1446" mask="url(#path-11-inside-5_1163_5)"/>
<mask id="path-13-inside-6_1163_5" fill="white">
<path d="M73.097 79.7864H75.7422V82.4315H73.097V79.7864Z"/>
</mask>
<path d="M73.097 79.7864H75.7422V82.4315H73.097V79.7864Z" fill="#3B38EB"/>
<path d="M73.097 79.7864V71.7864H65.097V79.7864H73.097ZM75.7422 79.7864H83.7422V71.7864H75.7422V79.7864ZM75.7422 82.4315V90.4315H83.7422V82.4315H75.7422ZM73.097 82.4315H65.097V90.4315H73.097V82.4315ZM73.097 87.7864H75.7422V71.7864H73.097V87.7864ZM67.7422 79.7864V82.4315H83.7422V79.7864H67.7422ZM75.7422 74.4315H73.097V90.4315H75.7422V74.4315ZM81.097 82.4315V79.7864H65.097V82.4315H81.097Z" fill="#CE1446" mask="url(#path-13-inside-6_1163_5)"/>
<mask id="path-15-inside-7_1163_5" fill="white">
<path d="M57.2256 79.7864H59.8707V82.4315H57.2256V79.7864Z"/>
</mask>
<path d="M57.2256 79.7864H59.8707V82.4315H57.2256V79.7864Z" fill="#3B38EB"/>
<path d="M57.2256 79.7864V71.7864H49.2256V79.7864H57.2256ZM59.8707 79.7864H67.8707V71.7864H59.8707V79.7864ZM59.8707 82.4315V90.4315H67.8707V82.4315H59.8707ZM57.2256 82.4315H49.2256V90.4315H57.2256V82.4315ZM57.2256 87.7864H59.8707V71.7864H57.2256V87.7864ZM51.8707 79.7864V82.4315H67.8707V79.7864H51.8707ZM59.8707 74.4315H57.2256V90.4315H59.8707V74.4315ZM65.2256 82.4315V79.7864H49.2256V82.4315H65.2256Z" fill="#CE1446" mask="url(#path-15-inside-7_1163_5)"/>
<mask id="path-17-inside-8_1163_5" fill="white">
<path d="M62.5161 79.7864H65.1612V82.4315H62.5161V79.7864Z"/>
</mask>
<path d="M62.5161 79.7864H65.1612V82.4315H62.5161V79.7864Z" fill="#3B38EB"/>
<path d="M62.5161 79.7864V71.7864H54.5161V79.7864H62.5161ZM65.1612 79.7864H73.1612V71.7864H65.1612V79.7864ZM65.1612 82.4315V90.4315H73.1612V82.4315H65.1612ZM62.5161 82.4315H54.5161V90.4315H62.5161V82.4315ZM62.5161 87.7864H65.1612V71.7864H62.5161V87.7864ZM57.1612 79.7864V82.4315H73.1612V79.7864H57.1612ZM65.1612 74.4315H62.5161V90.4315H65.1612V74.4315ZM70.5161 82.4315V79.7864H54.5161V82.4315H70.5161Z" fill="#CE1446" mask="url(#path-17-inside-8_1163_5)"/>
</svg>
