<svg width="93" height="90" viewBox="0 0 93 90" fill="none" xmlns="http://www.w3.org/2000/svg">
<circle opacity="0.1" cx="27.5" cy="24.5" r="24" fill="#CE1446" stroke="#CE1446"/>
<path d="M50.137 89.4972C49.6671 89.4972 49.2821 89.1138 49.2821 88.6358V85.0097C49.2821 84.2152 48.6389 83.5655 47.8424 83.5655H44.1988C43.4023 83.5655 42.7591 84.2152 42.7591 85.0097V88.6358C42.7591 89.1138 42.3741 89.4972 41.9042 89.4972C41.4344 89.4972 41.0493 89.1138 41.0493 88.6358V85.0097C41.0493 83.2617 42.4649 81.8428 44.1988 81.8428H47.8424C49.5763 81.8428 50.9919 83.2617 50.9919 85.0097V88.6358C50.9919 89.1139 50.607 89.4972 50.137 89.4972Z" fill="#CE1446" stroke="#CE1446" stroke-width="1.00465"/>
<path d="M58.6659 40.4483L58.6659 40.4482C58.3849 40.0668 57.8505 39.9872 57.4715 40.2689C57.0917 40.5517 57.0108 41.0921 57.2931 41.4753C57.2931 41.4753 57.2931 41.4754 57.2931 41.4754L64.0326 50.6213C64.9191 51.8243 64.8601 53.6179 63.8833 54.738L56.6223 63.064L56.4722 63.2361H56.2437H35.7989H35.5704L35.4203 63.064L28.1593 54.738L28.5378 54.4078L28.1593 54.738C27.1825 53.6179 27.1235 51.8243 28.01 50.6213C28.01 50.6213 28.01 50.6213 28.01 50.6213L41.3904 32.4631L42.2971 31.2326V32.7611V43.1077V43.3545L42.1018 43.5053C40.5293 44.7197 39.6095 46.576 39.6095 48.6076C39.6095 52.1631 42.4885 55.0525 46.0213 55.0525C49.5541 55.0525 52.4331 52.1631 52.4331 48.6076C52.4331 46.669 51.5749 44.8604 50.1078 43.642L49.9264 43.4913V43.2555V33.0068V31.4783L50.8331 32.7088L53.8134 36.7531L53.8134 36.7532C54.0946 37.1349 54.6289 37.2142 55.0076 36.9326L58.6659 40.4483ZM58.6659 40.4483L65.4056 49.5945C66.7718 51.4485 66.666 54.1576 65.1678 55.8754L65.5245 56.1865L65.1678 55.8754L59.1123 62.8188L58.6742 63.3211L59.2778 63.6038C60.6198 64.2325 61.5517 65.6002 61.5517 67.1822V73.6881C61.5517 75.3943 60.4682 76.8514 58.9566 77.4005L58.6377 77.5163L58.626 77.8553L58.2536 88.6662C58.2375 89.1335 57.856 89.4977 57.4001 89.4977C57.3881 89.4977 57.3783 89.4976 57.3698 89.4973C56.9001 89.4809 56.5285 89.0843 56.5449 88.6066L56.905 78.1538L56.9229 77.6341H56.403H35.8209H35.301L35.3189 78.1538L35.679 88.6065C35.6954 89.0843 35.3239 89.4809 34.8541 89.4973C34.8456 89.4976 34.8358 89.4977 34.8238 89.4977C34.3677 89.4977 33.9864 89.1336 33.9703 88.6662L33.6001 77.9177L33.5878 77.5623L33.2485 77.4558C31.6532 76.9547 30.4913 75.4549 30.4913 73.6881V67.1822C30.4913 65.6002 31.4231 64.2325 32.7652 63.6038L33.3687 63.3211L32.9306 62.8188L26.8752 55.8754C25.3769 54.1574 25.2712 51.4485 26.6373 49.5945L42.6782 27.8258L42.6782 27.8258C43.5059 26.7024 44.7257 26.0731 46.0215 26.0731C47.3172 26.0731 48.537 26.7024 49.3648 27.8258L49.7661 27.53M58.6659 40.4483L49.7661 27.53M49.7661 27.53L49.3648 27.8258L55.1862 35.726C55.1862 35.7261 55.1862 35.7261 55.1862 35.7261M49.7661 27.53L55.1862 35.7261M55.1862 35.7261C55.4685 36.1094 55.3876 36.6499 55.0077 36.9326L55.1862 35.7261ZM48.2167 29.3228V29.1577L48.1187 29.0248L47.9917 28.8524C47.9917 28.8524 47.9917 28.8524 47.9917 28.8524C47.506 28.1933 46.8079 27.7957 46.0213 27.7957C45.2672 27.7957 44.5961 28.164 44.115 28.773L44.0069 28.9099V29.0844V43.825C44.0069 44.1277 43.8492 44.4073 43.5931 44.5627L43.5931 44.5628C42.1702 45.4266 41.3192 46.9409 41.3192 48.6072C41.3192 51.2092 43.4259 53.3294 46.0213 53.3294C48.6167 53.3294 50.7233 51.2092 50.7233 48.6072C50.7233 47.015 49.9302 45.5388 48.6025 44.661L48.6025 44.661C48.3623 44.5022 48.2167 44.2317 48.2167 43.9408V29.3228ZM57.627 75.9109C58.8509 75.9109 59.8419 74.9117 59.8419 73.6877V67.1818C59.8419 65.9579 58.8511 64.9587 57.627 64.9587H34.4158C33.1918 64.9587 32.2008 65.9579 32.2008 67.1818V73.6877C32.2008 74.9116 33.1916 75.9109 34.4158 75.9109H57.627Z" fill="#CE1446" stroke="#CE1446" stroke-width="1.00465"/>
<path d="M19.0123 40.5685L18.8833 41.0539C20.9847 41.6125 22.5398 43.5405 22.5398 45.8269C22.5398 48.5507 20.3341 50.7635 17.6291 50.7635C14.924 50.7635 12.7183 48.5507 12.7183 45.8269C12.7183 43.5239 14.2959 41.5846 16.4201 41.0419L16.7835 40.949L16.7977 40.5742C16.9764 35.8662 18.2737 31.2541 20.5798 27.1704L20.5798 27.1703C20.8135 26.7564 21.3345 26.6132 21.7437 26.8466L21.7438 26.8466C22.1544 27.0807 22.3003 27.607 22.0658 28.0223C19.9096 31.8408 18.6919 36.1487 18.5104 40.5478L19.0123 40.5685ZM14.4281 45.8269C14.4281 47.5972 15.8614 49.0408 17.6291 49.0408C19.3968 49.0408 20.8301 47.5972 20.8301 45.8269C20.8301 44.0566 19.3968 42.613 17.6291 42.613C15.8614 42.613 14.4281 44.0566 14.4281 45.8269Z" fill="#CE1446" stroke="#CE1446" stroke-width="1.00465"/>
<path d="M82.1142 12.2172H82.6166V11.7149V10.8874C82.6166 9.57049 83.6831 8.50232 84.9879 8.50232H89.3494C90.6542 8.50232 91.7207 9.57049 91.7207 10.8874V15.2701C91.7207 16.587 90.6542 17.6552 89.3494 17.6552H84.9879C83.6831 17.6552 82.6166 16.587 82.6166 15.2701V14.4426V13.9403H82.1142H58.5545L58.3436 14.8986C68.1809 19.4486 74.9993 29.2959 75.4258 40.5747L75.44 40.9495L75.8034 41.0424C77.9274 41.5853 79.5048 43.5246 79.5048 45.8272C79.5048 48.5511 77.2992 50.7639 74.5941 50.7639C71.889 50.7639 69.6833 48.5511 69.6833 45.8272C69.6833 43.5404 71.2393 41.612 73.3414 41.054L73.7309 40.9505L73.7144 40.5478C73.1847 27.6733 63.8116 16.8001 51.2594 14.4236L50.6636 14.3109V14.9172V15.2699C50.6636 16.5868 49.5971 17.655 48.2923 17.655H43.9308C42.626 17.655 41.5594 16.5868 41.5594 15.2699V14.9174V14.3109L40.9635 14.4239C34.9447 15.5651 29.4533 18.702 25.3665 23.3667L25.3664 23.3668C25.1974 23.5598 24.9625 23.658 24.7251 23.658C24.5248 23.658 24.3245 23.5879 24.1616 23.4438C23.8062 23.1296 23.7714 22.5841 24.0847 22.2265L24.0847 22.2265C26.8312 19.0916 30.1754 16.608 33.8797 14.8984L33.6693 13.9399H10.1088H9.60647V14.4423V15.2698C9.60647 16.5867 8.53995 17.6548 7.23514 17.6548H2.87365C1.56884 17.6548 0.502323 16.5867 0.502323 15.2698V10.8874C0.502323 9.57049 1.56884 8.50232 2.87365 8.50232H7.23514C8.53995 8.50232 9.60647 9.57049 9.60647 10.8874V11.7149V12.2172H10.1088H41.0571H41.5594V11.7149V10.8874C41.5594 9.57049 42.626 8.50232 43.9308 8.50232H48.2923C49.5971 8.50232 50.6636 9.57049 50.6636 10.8874V11.7149V12.2172H51.1659H82.1142ZM7.23514 15.9321C7.6026 15.9321 7.89671 15.6331 7.89671 15.2698V10.8874C7.89671 10.524 7.60259 10.2251 7.23514 10.2251H2.87365C2.5062 10.2251 2.21208 10.524 2.21208 10.8874V15.2698C2.21208 15.6331 2.50619 15.9321 2.87365 15.9321H7.23514ZM74.5941 49.0408C76.3618 49.0408 77.7951 47.5972 77.7951 45.8269C77.7951 44.0566 76.3618 42.613 74.5941 42.613C72.8264 42.613 71.3931 44.0565 71.3931 45.8269C71.3931 47.5972 72.8264 49.0408 74.5941 49.0408ZM48.2923 15.9321C48.6597 15.9321 48.9538 15.6331 48.9538 15.2698V10.8874C48.9538 10.524 48.6597 10.2251 48.2923 10.2251H43.9308C43.5633 10.2251 43.2692 10.524 43.2692 10.8874V15.2698C43.2692 15.6331 43.5633 15.9321 43.9308 15.9321H48.2923ZM89.3494 15.9321C89.7169 15.9321 90.011 15.6331 90.011 15.2698V10.8874C90.011 10.5241 89.7169 10.2251 89.3494 10.2251H84.9879C84.6204 10.2251 84.3263 10.524 84.3263 10.8874V15.2698C84.3263 15.6331 84.6204 15.9321 84.9879 15.9321H89.3494Z" fill="#CE1446" stroke="#CE1446" stroke-width="1.00465"/>
</svg>
